<svg width="309" height="148" viewBox="0 0 309 148" fill="none" xmlns="http://www.w3.org/2000/svg">
<rect width="308.023" height="147.065" rx="16" fill="white"/>
<path d="M117.068 101.068H113.065V87.6018H117.245C118.503 87.6018 119.58 87.8714 120.475 88.4106C121.37 88.9453 122.056 89.7146 122.533 90.7184C123.01 91.7178 123.249 92.9145 123.249 94.3084C123.249 95.7111 123.008 96.9187 122.527 97.9312C122.046 98.9394 121.345 99.7153 120.424 100.259C119.504 100.798 118.385 101.068 117.068 101.068ZM114.636 99.621H116.967C118.039 99.621 118.928 99.4062 119.633 98.9767C120.338 98.5471 120.863 97.9356 121.21 97.1422C121.556 96.3488 121.729 95.4042 121.729 94.3084C121.729 93.2213 121.558 92.2855 121.216 91.5008C120.874 90.7118 120.363 90.1069 119.683 89.6861C119.004 89.2609 118.157 89.0483 117.144 89.0483H114.636V99.621Z" fill="#ED1B36"/>
<path d="M132.256 101.278C131.318 101.278 130.51 101.063 129.83 100.634C129.155 100.2 128.633 99.5947 128.266 98.8189C127.903 98.0386 127.721 97.1313 127.721 96.0968C127.721 95.0623 127.903 94.1506 128.266 93.3616C128.633 92.5682 129.144 91.9501 129.799 91.5074C130.457 91.0603 131.226 90.8368 132.104 90.8368C132.61 90.8368 133.111 90.9244 133.605 91.0998C134.099 91.2751 134.548 91.56 134.953 91.9545C135.359 92.3446 135.682 92.8619 135.922 93.5062C136.163 94.1506 136.283 94.944 136.283 95.8864V96.5439H128.785V95.2026H134.764C134.764 94.6328 134.654 94.1243 134.434 93.6772C134.219 93.2301 133.911 92.8772 133.51 92.6186C133.113 92.36 132.644 92.2307 132.104 92.2307C131.508 92.2307 130.993 92.3841 130.558 92.6909C130.128 92.9934 129.796 93.3879 129.564 93.8744C129.332 94.361 129.216 94.8826 129.216 95.4393V96.3335C129.216 97.0962 129.343 97.7428 129.596 98.2731C129.853 98.7992 130.21 99.2002 130.666 99.4764C131.122 99.7482 131.652 99.884 132.256 99.884C132.648 99.884 133.003 99.8271 133.32 99.7131C133.64 99.5947 133.917 99.4194 134.149 99.1871C134.381 98.9504 134.561 98.6567 134.688 98.306L136.131 98.7268C135.979 99.2353 135.724 99.6824 135.365 100.068C135.006 100.449 134.563 100.748 134.035 100.962C133.507 101.173 132.914 101.278 132.256 101.278Z" fill="#ED1B36"/>
<path d="M147.944 93.2301L146.601 93.6246C146.517 93.3923 146.392 93.1665 146.228 92.9474C146.067 92.7238 145.848 92.5397 145.569 92.395C145.29 92.2504 144.934 92.1781 144.499 92.1781C143.903 92.1781 143.407 92.3205 143.01 92.6054C142.618 92.886 142.422 93.2432 142.422 93.6772C142.422 94.0629 142.557 94.3676 142.827 94.5911C143.097 94.8147 143.519 95.001 144.093 95.15L145.537 95.5182C146.407 95.7374 147.055 96.0727 147.482 96.5242C147.908 96.9713 148.121 97.5477 148.121 98.2534C148.121 98.832 147.961 99.3493 147.64 99.8051C147.323 100.261 146.88 100.62 146.31 100.883C145.74 101.146 145.077 101.278 144.321 101.278C143.329 101.278 142.508 101.054 141.858 100.607C141.208 100.16 140.796 99.5071 140.623 98.6479L142.042 98.2797C142.177 98.8233 142.432 99.2309 142.808 99.5027C143.188 99.7745 143.684 99.9103 144.296 99.9103C144.993 99.9103 145.546 99.7569 145.955 99.4501C146.369 99.1389 146.576 98.7663 146.576 98.3323C146.576 97.9817 146.458 97.688 146.221 97.4513C145.985 97.2102 145.622 97.0305 145.132 96.9121L143.511 96.5176C142.62 96.2984 141.966 95.9587 141.548 95.4985C141.134 95.0338 140.927 94.453 140.927 93.7561C140.927 93.1862 141.081 92.6822 141.389 92.2438C141.702 91.8055 142.126 91.4614 142.662 91.2115C143.203 90.9617 143.815 90.8368 144.499 90.8368C145.461 90.8368 146.217 91.0559 146.766 91.4943C147.319 91.9326 147.712 92.5112 147.944 93.2301Z" fill="#ED1B36"/>
<path d="M152.868 101.068V90.9683H154.362V101.068H152.868ZM153.628 89.285C153.336 89.285 153.085 89.182 152.874 88.976C152.667 88.77 152.564 88.5223 152.564 88.233C152.564 87.9437 152.667 87.6961 152.874 87.4901C153.085 87.284 153.336 87.181 153.628 87.181C153.919 87.181 154.168 87.284 154.375 87.4901C154.586 87.6961 154.691 87.9437 154.691 88.233C154.691 88.5223 154.586 88.77 154.375 88.976C154.168 89.182 153.919 89.285 153.628 89.285Z" fill="#ED1B36"/>
<path d="M163.523 105.065C162.801 105.065 162.18 104.969 161.661 104.776C161.141 104.587 160.709 104.338 160.363 104.026C160.021 103.719 159.748 103.391 159.546 103.04L160.736 102.172C160.871 102.356 161.042 102.567 161.249 102.803C161.456 103.044 161.739 103.253 162.098 103.428C162.461 103.608 162.936 103.698 163.523 103.698C164.308 103.698 164.956 103.5 165.467 103.106C165.978 102.711 166.233 102.093 166.233 101.252V99.2002H166.107C165.997 99.3843 165.841 99.6123 165.638 99.884C165.439 100.151 165.152 100.39 164.777 100.601C164.405 100.807 163.903 100.91 163.269 100.91C162.484 100.91 161.779 100.717 161.154 100.331C160.534 99.9454 160.042 99.3843 159.679 98.6479C159.32 97.9115 159.14 97.0173 159.14 95.9653C159.14 94.9308 159.316 94.03 159.666 93.263C160.016 92.4915 160.504 91.8953 161.129 91.4745C161.754 91.0494 162.476 90.8368 163.295 90.8368C163.928 90.8368 164.43 90.9463 164.802 91.1655C165.178 91.3803 165.465 91.6258 165.663 91.9019C165.866 92.1737 166.022 92.3972 166.132 92.5726H166.284V90.9683H167.728V101.357C167.728 102.225 167.538 102.93 167.158 103.474C166.782 104.022 166.275 104.423 165.638 104.677C165.005 104.936 164.3 105.065 163.523 105.065ZM163.472 99.5158C164.072 99.5158 164.578 99.3734 164.992 99.0885C165.406 98.8035 165.72 98.3937 165.936 97.8589C166.151 97.3241 166.258 96.6842 166.258 95.939C166.258 95.2114 166.153 94.5692 165.942 94.0125C165.731 93.4558 165.418 93.0197 165.005 92.7041C164.591 92.3885 164.08 92.2307 163.472 92.2307C162.839 92.2307 162.311 92.3972 161.889 92.7304C161.471 93.0635 161.156 93.5106 160.945 94.0717C160.738 94.6328 160.635 95.2552 160.635 95.939C160.635 96.6403 160.74 97.2606 160.952 97.7997C161.167 98.3345 161.483 98.7553 161.901 99.0622C162.324 99.3646 162.847 99.5158 163.472 99.5158Z" fill="#ED1B36"/>
<path d="M174.455 94.9922V101.068H172.96V90.9683H174.404V92.5463H174.531C174.759 92.0334 175.105 91.6214 175.569 91.3102C176.034 90.9946 176.633 90.8368 177.368 90.8368C178.027 90.8368 178.603 90.977 179.097 91.2576C179.591 91.5337 179.975 91.9545 180.249 92.52C180.524 93.081 180.661 93.7912 180.661 94.6503V101.068H179.166V94.7555C179.166 93.9621 178.968 93.344 178.571 92.9013C178.174 92.4542 177.63 92.2307 176.937 92.2307C176.46 92.2307 176.034 92.3381 175.658 92.5528C175.287 92.7676 174.993 93.081 174.778 93.4931C174.562 93.9051 174.455 94.4048 174.455 94.9922Z" fill="#ED1B36"/>
<path d="M200.697 90.9683C200.621 90.302 200.312 89.7848 199.772 89.4165C199.232 89.0483 198.569 88.8642 197.784 88.8642C197.209 88.8642 196.707 88.9607 196.276 89.1535C195.85 89.3464 195.516 89.6116 195.276 89.9491C195.039 90.2866 194.921 90.6702 194.921 91.0998C194.921 91.4592 195.003 91.7682 195.168 92.0268C195.337 92.2811 195.552 92.4937 195.814 92.6646C196.076 92.8312 196.35 92.9693 196.637 93.0789C196.924 93.1841 197.188 93.2695 197.429 93.3353L198.746 93.7035C199.084 93.7955 199.46 93.9227 199.873 94.0848C200.291 94.247 200.69 94.4684 201.07 94.7489C201.455 95.0251 201.771 95.3801 202.02 95.8141C202.269 96.248 202.394 96.7806 202.394 97.4118C202.394 98.1395 202.21 98.797 201.843 99.3843C201.48 99.9717 200.948 100.439 200.247 100.785C199.55 101.131 198.704 101.304 197.708 101.304C196.779 101.304 195.974 101.149 195.295 100.837C194.619 100.526 194.087 100.092 193.699 99.5356C193.315 98.9789 193.097 98.3323 193.047 97.5959H194.668C194.71 98.1044 194.875 98.5252 195.162 98.8583C195.453 99.1871 195.82 99.4325 196.264 99.5947C196.711 99.7525 197.192 99.8314 197.708 99.8314C198.307 99.8314 198.845 99.7306 199.322 99.529C199.8 99.323 200.177 99.038 200.456 98.6742C200.735 98.306 200.874 97.8765 200.874 97.3855C200.874 96.9384 200.754 96.5746 200.513 96.2941C200.272 96.0135 199.956 95.7856 199.563 95.6102C199.17 95.4349 198.746 95.2815 198.29 95.15L196.694 94.6766C195.681 94.3741 194.879 93.9424 194.288 93.3813C193.697 92.8202 193.401 92.086 193.401 91.1787C193.401 90.4247 193.597 89.7672 193.99 89.2061C194.387 88.6407 194.919 88.2024 195.586 87.8911C196.257 87.5755 197.007 87.4177 197.834 87.4177C198.67 87.4177 199.413 87.5733 200.063 87.8846C200.714 88.1914 201.229 88.6122 201.609 89.147C201.993 89.6817 202.195 90.2888 202.217 90.9683H200.697Z" fill="#ED1B36"/>
<path d="M208.233 104.855C207.979 104.855 207.754 104.833 207.555 104.789C207.357 104.75 207.22 104.71 207.144 104.671L207.524 103.303C207.887 103.399 208.207 103.435 208.486 103.408C208.765 103.382 209.012 103.253 209.227 103.02C209.447 102.792 209.647 102.422 209.829 101.909L210.107 101.12L206.51 90.9683H208.131L210.817 99.0161H210.918L213.603 90.9683H215.224L211.095 102.54C210.91 103.062 210.679 103.494 210.405 103.836C210.131 104.182 209.812 104.438 209.449 104.605C209.09 104.771 208.685 104.855 208.233 104.855Z" fill="#ED1B36"/>
<path d="M226.584 93.2301L225.241 93.6246C225.157 93.3923 225.032 93.1665 224.868 92.9474C224.707 92.7238 224.488 92.5397 224.209 92.395C223.93 92.2504 223.574 92.1781 223.139 92.1781C222.544 92.1781 222.047 92.3205 221.651 92.6054C221.258 92.886 221.062 93.2432 221.062 93.6772C221.062 94.0629 221.197 94.3676 221.467 94.5911C221.737 94.8147 222.159 95.001 222.734 95.15L224.177 95.5182C225.047 95.7374 225.695 96.0727 226.122 96.5242C226.548 96.9713 226.761 97.5477 226.761 98.2534C226.761 98.832 226.601 99.3493 226.28 99.8051C225.963 100.261 225.52 100.62 224.95 100.883C224.38 101.146 223.717 101.278 222.962 101.278C221.969 101.278 221.148 101.054 220.498 100.607C219.848 100.16 219.436 99.5071 219.263 98.6479L220.682 98.2797C220.817 98.8233 221.072 99.2309 221.448 99.5027C221.828 99.7745 222.324 99.9103 222.936 99.9103C223.633 99.9103 224.186 99.7569 224.595 99.4501C225.009 99.1389 225.216 98.7663 225.216 98.3323C225.216 97.9817 225.098 97.688 224.861 97.4513C224.625 97.2102 224.262 97.0305 223.772 96.9121L222.151 96.5176C221.26 96.2984 220.606 95.9587 220.188 95.4985C219.774 95.0338 219.567 94.453 219.567 93.7561C219.567 93.1862 219.721 92.6822 220.029 92.2438C220.342 91.8055 220.766 91.4614 221.302 91.2115C221.843 90.9617 222.455 90.8368 223.139 90.8368C224.101 90.8368 224.857 91.0559 225.406 91.4943C225.959 91.9326 226.352 92.5112 226.584 93.2301Z" fill="#ED1B36"/>
<path d="M235.738 90.9683V92.2833H230.697V90.9683H235.738ZM232.166 88.5486H233.661V98.1745C233.661 98.6129 233.722 98.9416 233.845 99.1608C233.971 99.3756 234.132 99.5202 234.326 99.5947C234.524 99.6649 234.733 99.6999 234.953 99.6999C235.117 99.6999 235.253 99.6912 235.358 99.6736C235.464 99.6517 235.548 99.6342 235.611 99.621L235.915 101.015C235.814 101.054 235.673 101.094 235.491 101.133C235.31 101.177 235.079 101.199 234.801 101.199C234.379 101.199 233.965 101.105 233.56 100.916C233.158 100.728 232.825 100.441 232.559 100.055C232.297 99.6692 232.166 99.1827 232.166 98.5953V88.5486Z" fill="#ED1B36"/>
<path d="M244.457 101.278C243.52 101.278 242.711 101.063 242.031 100.634C241.356 100.2 240.834 99.5947 240.467 98.8189C240.104 98.0386 239.922 97.1313 239.922 96.0968C239.922 95.0623 240.104 94.1506 240.467 93.3616C240.834 92.5682 241.345 91.9501 242 91.5074C242.658 91.0603 243.427 90.8368 244.305 90.8368C244.812 90.8368 245.312 90.9244 245.806 91.0998C246.3 91.2751 246.749 91.56 247.155 91.9545C247.56 92.3446 247.883 92.8619 248.124 93.5062C248.364 94.1506 248.485 94.944 248.485 95.8864V96.5439H240.986V95.2026H246.965C246.965 94.6328 246.855 94.1243 246.635 93.6772C246.42 93.2301 246.112 92.8772 245.711 92.6186C245.314 92.36 244.845 92.2307 244.305 92.2307C243.71 92.2307 243.195 92.3841 242.76 92.6909C242.329 92.9934 241.998 93.3879 241.765 93.8744C241.533 94.361 241.417 94.8826 241.417 95.4393V96.3335C241.417 97.0962 241.544 97.7428 241.797 98.2731C242.055 98.7992 242.411 99.2002 242.867 99.4764C243.323 99.7482 243.853 99.884 244.457 99.884C244.85 99.884 245.204 99.8271 245.521 99.7131C245.842 99.5947 246.118 99.4194 246.35 99.1871C246.583 98.9504 246.762 98.6567 246.889 98.306L248.333 98.7268C248.181 99.2353 247.925 99.6824 247.566 100.068C247.207 100.449 246.764 100.748 246.236 100.962C245.709 101.173 245.115 101.278 244.457 101.278Z" fill="#ED1B36"/>
<path d="M253.255 101.068V90.9683H254.699V92.5463H254.825C255.028 92.0071 255.355 91.5885 255.807 91.2904C256.259 90.988 256.801 90.8368 257.435 90.8368C258.076 90.8368 258.61 90.988 259.037 91.2904C259.467 91.5885 259.803 92.0071 260.044 92.5463H260.145C260.394 92.0247 260.768 91.6104 261.266 91.3036C261.764 90.9924 262.362 90.8368 263.058 90.8368C263.928 90.8368 264.639 91.1195 265.192 91.6849C265.745 92.246 266.022 93.1205 266.022 94.3084V101.068H264.527V94.3084C264.527 93.5632 264.331 93.0306 263.938 92.7107C263.546 92.3907 263.083 92.2307 262.552 92.2307C261.868 92.2307 261.338 92.4455 260.962 92.875C260.586 93.3002 260.398 93.8394 260.398 94.4925V101.068H258.878V94.1506C258.878 93.5764 258.699 93.1139 258.34 92.7633C257.981 92.4082 257.519 92.2307 256.953 92.2307C256.565 92.2307 256.202 92.3381 255.864 92.5528C255.53 92.7676 255.26 93.0657 255.053 93.4471C254.851 93.824 254.749 94.2602 254.749 94.7555V101.068H253.255Z" fill="#ED1B36"/>
<path d="M66.3809 42H48.973V49.6395H66.3809V42Z" fill="url(#paint0_linear_4293_68732)"/>
<rect width="7.6277" height="7.6277" transform="matrix(-1 0 0 1 73.8447 42.0055)" fill="#ED1B36"/>
<path d="M54.5792 80.9243H62.0801V50.0857C62.0801 49.7997 61.9678 49.5252 61.7675 49.3211L54.9896 42.4179C54.7271 42.1506 54.3682 42 53.9935 42H42V49.6395H53.7062C54.1883 49.6395 54.5792 50.0304 54.5792 50.5126V59.3635V80.9243Z" fill="#1B1B1B"/>
<path d="M79.4521 81.0135H72.1211L85.4687 42.9904H93.9475L107.314 81.0135H99.9826L89.8562 50.7881H89.56L79.4521 81.0135ZM79.6928 66.105H99.6864V71.6377H79.6928V66.105Z" fill="#1B1B1B"/>
<path d="M113.35 81.0135V42.9904H127.568C130.48 42.9904 132.924 43.4979 134.899 44.5128C136.886 45.5278 138.385 46.9512 139.397 48.783C140.422 50.6025 140.934 52.7252 140.934 55.1511C140.934 57.5894 140.415 59.706 139.379 61.5007C138.354 63.283 136.843 64.6631 134.843 65.6409C132.844 66.6063 130.388 67.089 127.475 67.089H117.349V61.3707H126.55C128.253 61.3707 129.647 61.1355 130.733 60.6652C131.819 60.1825 132.622 59.4832 133.14 58.5673C133.671 57.639 133.936 56.5002 133.936 55.1511C133.936 53.802 133.671 52.6509 133.14 51.6979C132.609 50.7324 131.801 50.0022 130.715 49.5071C129.629 48.9996 128.228 48.7459 126.512 48.7459H120.218V81.0135H113.35ZM132.936 63.7843L142.322 81.0135H134.658L125.439 63.7843H132.936Z" fill="#1B1B1B"/>
<path d="M148.299 42.9904H156.703L167.959 70.5423H168.403L179.659 42.9904H188.064V81.0135H181.473V54.8912H181.121L170.643 80.9021H165.719L155.241 54.8355H154.889V81.0135H148.299V42.9904Z" fill="#1B1B1B"/>
<path d="M201.454 81.0135H194.123L207.471 42.9904H215.95L229.316 81.0135H221.985L211.858 50.7881H211.562L201.454 81.0135ZM201.695 66.105H221.689V71.6377H201.695V66.105Z" fill="#1B1B1B"/>
<path d="M266.023 55.8195H259.099C258.902 54.6808 258.538 53.672 258.007 52.7932C257.476 51.9021 256.816 51.1471 256.026 50.5282C255.236 49.9093 254.335 49.4452 253.323 49.1358C252.324 48.8139 251.244 48.653 250.084 48.653C248.022 48.653 246.196 49.1729 244.604 50.2126C243.012 51.2399 241.765 52.7499 240.864 54.7427C239.963 56.723 239.513 59.1428 239.513 62.002C239.513 64.9106 239.963 67.3613 240.864 69.3541C241.778 71.3344 243.024 72.8321 244.604 73.847C246.196 74.8496 248.016 75.3509 250.065 75.3509C251.2 75.3509 252.262 75.2023 253.249 74.9053C254.249 74.5959 255.144 74.1441 255.934 73.55C256.736 72.9559 257.408 72.2256 257.951 71.3592C258.507 70.4928 258.889 69.5026 259.099 68.3886L266.023 68.4258C265.764 70.2329 265.202 71.9285 264.338 73.5128C263.487 75.0971 262.37 76.4958 260.987 77.7087C259.605 78.9093 257.988 79.85 256.137 80.5308C254.286 81.1991 252.231 81.5333 249.972 81.5333C246.64 81.5333 243.666 80.7597 241.049 79.2126C238.433 77.6654 236.372 75.4313 234.866 72.5103C233.36 69.5892 232.608 66.0865 232.608 62.002C232.608 57.9051 233.367 54.4023 234.885 51.4936C236.403 48.5726 238.47 46.3385 241.086 44.7913C243.703 43.2442 246.665 42.4706 249.972 42.4706C252.083 42.4706 254.045 42.7676 255.859 43.3617C257.674 43.9559 259.29 44.8285 260.71 45.9795C262.129 47.1183 263.295 48.5169 264.209 50.1754C265.134 51.8216 265.739 53.703 266.023 55.8195Z" fill="#1B1B1B"/>
<defs>
<linearGradient id="paint0_linear_4293_68732" x1="62.5738" y1="45.7103" x2="48.9191" y2="45.7437" gradientUnits="userSpaceOnUse">
<stop stop-color="#ED1B36" stop-opacity="0.7"/>
<stop offset="1" stop-color="#ED1B36" stop-opacity="0"/>
</linearGradient>
</defs>
</svg>
