<svg width="308" height="148" viewBox="0 0 308 148" fill="none" xmlns="http://www.w3.org/2000/svg">
<rect width="308" height="147.412" rx="16" fill="#0D0D0D"/>
<path d="M66.3789 42H48.9728V49.6387H66.3789V42Z" fill="url(#paint0_linear_4293_68723)"/>
<rect width="7.62693" height="7.62693" transform="matrix(-1 0 0 1 73.8418 42.0055)" fill="#ED1B36"/>
<path d="M54.578 80.9204H62.0781V50.0849C62.0781 49.7989 61.9659 49.5244 61.7655 49.3204L54.9884 42.4179C54.7259 42.1506 54.367 42 53.9924 42H42V49.6387H53.705C54.1872 49.6387 54.578 50.0296 54.578 50.5117V59.3618V80.9204Z" fill="#EAEAEA"/>
<path d="M79.4475 81.0096H72.1172L85.4635 42.9904H93.9414L107.306 81.0096H99.9759L89.8505 50.7873H89.5543L79.4475 81.0096ZM79.6881 66.1027H99.6797V71.6347H79.6881V66.1027Z" fill="#EAEAEA"/>
<path d="M113.342 81.0096V42.9904H127.558C130.471 42.9904 132.914 43.4978 134.889 44.5126C136.875 45.5275 138.375 46.9507 139.387 48.7824C140.411 50.6016 140.923 52.7241 140.923 55.1498C140.923 57.5879 140.405 59.7042 139.368 61.4988C138.344 63.2809 136.832 64.6608 134.833 65.6386C132.834 66.6039 130.378 67.0865 127.466 67.0865H117.34V61.3688H126.54C128.243 61.3688 129.638 61.1337 130.724 60.6634C131.81 60.1807 132.612 59.4815 133.13 58.5656C133.661 57.6374 133.926 56.4988 133.926 55.1498C133.926 53.8009 133.661 52.6499 133.13 51.6969C132.599 50.7316 131.791 50.0014 130.705 49.5064C129.619 48.9989 128.218 48.7452 126.503 48.7452H120.209V81.0096H113.342ZM132.926 63.7821L142.311 81.0096H134.648L125.43 63.7821H132.926Z" fill="#EAEAEA"/>
<path d="M148.287 42.9904H156.691L167.945 70.5395H168.39L179.644 42.9904H188.048V81.0096H181.458V54.8899H181.107L170.629 80.8982H165.706L155.229 54.8343H154.877V81.0096H148.287V42.9904Z" fill="#EAEAEA"/>
<path d="M201.437 81.0096H194.107L207.453 42.9904H215.931L229.296 81.0096H221.966L211.84 50.7873H211.544L201.437 81.0096ZM201.678 66.1027H221.67V71.6347H201.678V66.1027Z" fill="#EAEAEA"/>
<path d="M266 55.8182H259.077C258.879 54.6796 258.515 53.6709 257.984 52.7922C257.454 51.9011 256.794 51.1462 256.004 50.5274C255.214 49.9086 254.313 49.4445 253.301 49.1351C252.302 48.8133 251.222 48.6524 250.062 48.6524C248.001 48.6524 246.175 49.1722 244.583 50.2118C242.991 51.239 241.744 52.7489 240.843 54.7414C239.943 56.7216 239.492 59.1411 239.492 62C239.492 64.9084 239.943 67.3588 240.843 69.3514C241.757 71.3315 243.003 72.829 244.583 73.8439C246.175 74.8463 247.995 75.3476 250.043 75.3476C251.179 75.3476 252.24 75.1991 253.227 74.902C254.227 74.5926 255.121 74.1409 255.911 73.5468C256.713 72.9528 257.386 72.2226 257.929 71.3563C258.484 70.49 258.867 69.4999 259.077 68.386L266 68.4232C265.74 70.2301 265.179 71.9256 264.315 73.5097C263.464 75.0939 262.347 76.4924 260.965 77.7052C259.582 78.9057 257.966 79.8463 256.115 80.5269C254.264 81.1953 252.209 81.5294 249.951 81.5294C246.619 81.5294 243.645 80.7559 241.029 79.2089C238.412 77.6619 236.351 75.428 234.846 72.5073C233.34 69.5865 232.588 66.0841 232.588 62C232.588 57.9035 233.347 54.4011 234.864 51.4927C236.382 48.572 238.449 46.3381 241.066 44.7911C243.682 43.2441 246.643 42.4706 249.951 42.4706C252.061 42.4706 254.023 42.7676 255.837 43.3617C257.651 43.9557 259.268 44.8282 260.687 45.9792C262.106 47.1178 263.272 48.5163 264.186 50.1747C265.111 51.8207 265.716 53.7018 266 55.8182Z" fill="#EAEAEA"/>
<path d="M117.061 101.415H113.059V87.9502H117.238C118.496 87.9502 119.572 88.2197 120.467 88.7588C121.362 89.2935 122.048 90.0628 122.525 91.0664C123.002 92.0658 123.241 93.2623 123.241 94.6561C123.241 96.0586 123 97.2661 122.519 98.2786C122.038 99.2866 121.337 100.062 120.417 100.606C119.496 101.145 118.378 101.415 117.061 101.415ZM114.629 99.9682H116.959C118.032 99.9682 118.92 99.7534 119.625 99.3239C120.33 98.8944 120.856 98.2829 121.202 97.4896C121.548 96.6963 121.721 95.7518 121.721 94.6561C121.721 93.5691 121.55 92.6333 121.208 91.8488C120.866 91.0599 120.355 90.455 119.676 90.0343C118.996 89.6091 118.15 89.3965 117.137 89.3965H114.629V99.9682Z" fill="#ED1B36"/>
<path d="M132.247 101.625C131.31 101.625 130.501 101.41 129.822 100.981C129.146 100.547 128.625 99.9419 128.258 99.1661C127.895 98.3859 127.713 97.4787 127.713 96.4443C127.713 95.4099 127.895 94.4983 128.258 93.7093C128.625 92.916 129.136 92.298 129.79 91.8554C130.449 91.4083 131.217 91.1848 132.095 91.1848C132.602 91.1848 133.102 91.2724 133.596 91.4478C134.09 91.6231 134.539 91.908 134.944 92.3024C135.35 92.6925 135.673 93.2097 135.913 93.854C136.154 94.4983 136.274 95.2916 136.274 96.2339V96.8914H128.777V95.5502H134.755C134.755 94.9804 134.645 94.472 134.425 94.0249C134.21 93.5779 133.902 93.225 133.501 92.9664C133.104 92.7078 132.635 92.5786 132.095 92.5786C131.5 92.5786 130.985 92.732 130.55 93.0388C130.119 93.3412 129.788 93.7356 129.556 94.2222C129.324 94.7087 129.207 95.2302 129.207 95.7869V96.681C129.207 97.4436 129.334 98.0901 129.587 98.6204C129.845 99.1464 130.202 99.5474 130.658 99.8235C131.113 100.095 131.643 100.231 132.247 100.231C132.64 100.231 132.994 100.174 133.311 100.06C133.632 99.9419 133.908 99.7666 134.14 99.5343C134.372 99.2976 134.552 99.0039 134.679 98.6533L136.122 99.0741C135.97 99.5825 135.715 100.03 135.356 100.415C134.997 100.797 134.554 101.095 134.026 101.309C133.499 101.52 132.905 101.625 132.247 101.625Z" fill="#ED1B36"/>
<path d="M147.933 93.5779L146.591 93.9723C146.507 93.74 146.382 93.5143 146.217 93.2952C146.057 93.0716 145.838 92.8875 145.559 92.7429C145.28 92.5983 144.924 92.526 144.489 92.526C143.893 92.526 143.397 92.6684 143.001 92.9533C142.608 93.2338 142.412 93.591 142.412 94.0249C142.412 94.4106 142.547 94.7152 142.817 94.9388C143.087 95.1623 143.509 95.3486 144.083 95.4976L145.527 95.8658C146.397 96.0849 147.045 96.4202 147.471 96.8716C147.898 97.3187 148.111 97.895 148.111 98.6007C148.111 99.1792 147.95 99.6964 147.63 100.152C147.313 100.608 146.87 100.967 146.3 101.23C145.73 101.493 145.067 101.625 144.311 101.625C143.319 101.625 142.498 101.401 141.848 100.954C141.198 100.507 140.786 99.8542 140.613 98.9952L142.032 98.627C142.167 99.1705 142.422 99.5781 142.798 99.8498C143.178 100.122 143.674 100.257 144.286 100.257C144.983 100.257 145.536 100.104 145.945 99.7972C146.359 99.4861 146.566 99.1135 146.566 98.6796C146.566 98.329 146.448 98.0353 146.211 97.7986C145.975 97.5576 145.612 97.3779 145.122 97.2595L143.501 96.8651C142.61 96.6459 141.956 96.3062 141.538 95.846C141.124 95.3814 140.917 94.8007 140.917 94.1038C140.917 93.534 141.071 93.03 141.38 92.5917C141.692 92.1534 142.116 91.8093 142.652 91.5595C143.193 91.3097 143.805 91.1848 144.489 91.1848C145.451 91.1848 146.207 91.4039 146.756 91.8422C147.309 92.2805 147.701 92.8591 147.933 93.5779Z" fill="#ED1B36"/>
<path d="M152.857 101.415V91.3163H154.351V101.415H152.857ZM153.617 89.6332C153.325 89.6332 153.074 89.5302 152.863 89.3242C152.656 89.1182 152.553 88.8706 152.553 88.5813C152.553 88.292 152.656 88.0444 152.863 87.8384C153.074 87.6324 153.325 87.5294 153.617 87.5294C153.908 87.5294 154.157 87.6324 154.364 87.8384C154.575 88.0444 154.68 88.292 154.68 88.5813C154.68 88.8706 154.575 89.1182 154.364 89.3242C154.157 89.5302 153.908 89.6332 153.617 89.6332Z" fill="#ED1B36"/>
<path d="M163.511 105.412C162.789 105.412 162.168 105.315 161.649 105.122C161.13 104.934 160.697 104.684 160.351 104.373C160.009 104.066 159.737 103.737 159.534 103.387L160.725 102.519C160.86 102.703 161.031 102.914 161.237 103.15C161.444 103.391 161.727 103.599 162.086 103.775C162.449 103.954 162.924 104.044 163.511 104.044C164.296 104.044 164.944 103.847 165.455 103.453C165.966 103.058 166.221 102.44 166.221 101.599V99.5474H166.094C165.985 99.7315 165.828 99.9594 165.626 100.231C165.427 100.499 165.14 100.737 164.765 100.948C164.393 101.154 163.891 101.257 163.257 101.257C162.472 101.257 161.767 101.064 161.142 100.678C160.522 100.293 160.03 99.7315 159.667 98.9952C159.308 98.2588 159.129 97.3647 159.129 96.3128C159.129 95.2784 159.304 94.3777 159.654 93.6107C160.005 92.8393 160.492 92.2433 161.117 91.8225C161.742 91.3974 162.464 91.1848 163.283 91.1848C163.916 91.1848 164.418 91.2944 164.79 91.5135C165.166 91.7283 165.453 91.9737 165.651 92.2498C165.854 92.5216 166.01 92.7451 166.12 92.9204H166.272V91.3163H167.715V101.704C167.715 102.572 167.525 103.277 167.146 103.821C166.77 104.369 166.263 104.77 165.626 105.024C164.993 105.282 164.288 105.412 163.511 105.412ZM163.46 99.863C164.06 99.863 164.566 99.7205 164.98 99.4356C165.394 99.1508 165.708 98.741 165.923 98.2062C166.139 97.6715 166.246 97.0316 166.246 96.2865C166.246 95.5589 166.141 94.9168 165.93 94.3602C165.719 93.8036 165.406 93.3675 164.993 93.0519C164.579 92.7363 164.068 92.5786 163.46 92.5786C162.827 92.5786 162.299 92.7451 161.877 93.0782C161.459 93.4113 161.145 93.8584 160.934 94.4194C160.727 94.9804 160.623 95.6028 160.623 96.2865C160.623 96.9878 160.729 97.608 160.94 98.1471C161.155 98.6818 161.472 99.1025 161.89 99.4094C162.312 99.7118 162.835 99.863 163.46 99.863Z" fill="#ED1B36"/>
<path d="M174.442 95.3398V101.415H172.947V91.3163H174.391V92.8941H174.518C174.746 92.3813 175.092 91.9693 175.556 91.6581C176.021 91.3426 176.62 91.1848 177.355 91.1848C178.013 91.1848 178.589 91.325 179.083 91.6055C179.577 91.8817 179.961 92.3024 180.236 92.8678C180.51 93.4288 180.647 94.1389 180.647 94.9979V101.415H179.153V95.1031C179.153 94.3098 178.955 93.6918 178.558 93.2491C178.161 92.8021 177.616 92.5786 176.924 92.5786C176.447 92.5786 176.021 92.6859 175.645 92.9007C175.273 93.1155 174.98 93.4288 174.765 93.8408C174.549 94.2528 174.442 94.7525 174.442 95.3398Z" fill="#ED1B36"/>
<path d="M200.681 91.3163C200.605 90.6501 200.297 90.1329 199.757 89.7647C199.216 89.3965 198.553 89.2125 197.768 89.2125C197.194 89.2125 196.692 89.3089 196.261 89.5017C195.835 89.6946 195.501 89.9598 195.261 90.2972C195.024 90.6347 194.906 91.0182 194.906 91.4478C194.906 91.8072 194.988 92.1162 195.153 92.3747C195.322 92.629 195.537 92.8415 195.799 93.0125C196.061 93.179 196.335 93.3171 196.622 93.4267C196.909 93.5318 197.173 93.6173 197.414 93.6831L198.731 94.0512C199.068 94.1433 199.444 94.2704 199.858 94.4325C200.276 94.5947 200.675 94.816 201.055 95.0965C201.439 95.3727 201.755 95.7277 202.005 96.1616C202.254 96.5955 202.378 97.128 202.378 97.7592C202.378 98.4867 202.194 99.1442 201.827 99.7315C201.464 100.319 200.932 100.786 200.231 101.132C199.535 101.478 198.688 101.651 197.692 101.651C196.763 101.651 195.959 101.496 195.28 101.184C194.604 100.873 194.072 100.439 193.684 99.8827C193.3 99.3261 193.082 98.6796 193.032 97.9433H194.653C194.695 98.4517 194.86 98.8724 195.147 99.2055C195.438 99.5343 195.805 99.7797 196.248 99.9419C196.696 100.1 197.177 100.179 197.692 100.179C198.292 100.179 198.83 100.078 199.307 99.8761C199.784 99.6701 200.162 99.3852 200.44 99.0215C200.719 98.6533 200.858 98.2238 200.858 97.7329C200.858 97.2858 200.738 96.922 200.497 96.6415C200.257 96.361 199.94 96.1331 199.548 95.9578C199.155 95.7825 198.731 95.6291 198.275 95.4976L196.679 95.0242C195.666 94.7218 194.864 94.2901 194.273 93.7291C193.682 93.1681 193.386 92.4339 193.386 91.5267C193.386 90.7728 193.583 90.1153 193.975 89.5543C194.372 88.9889 194.904 88.5506 195.571 88.2395C196.242 87.9239 196.991 87.7661 197.819 87.7661C198.655 87.7661 199.398 87.9217 200.048 88.2329C200.698 88.5397 201.213 88.9604 201.593 89.4952C201.977 90.0299 202.18 90.6369 202.201 91.3163H200.681Z" fill="#ED1B36"/>
<path d="M208.216 105.201C207.963 105.201 207.737 105.179 207.539 105.136C207.34 105.096 207.203 105.057 207.127 105.017L207.507 103.65C207.87 103.746 208.191 103.781 208.47 103.755C208.748 103.729 208.995 103.599 209.211 103.367C209.43 103.139 209.631 102.769 209.812 102.256L210.091 101.467L206.494 91.3163H208.115L210.8 99.3633H210.901L213.586 91.3163H215.207L211.079 102.887C210.893 103.409 210.663 103.84 210.388 104.182C210.114 104.529 209.795 104.785 209.432 104.952C209.073 105.118 208.668 105.201 208.216 105.201Z" fill="#ED1B36"/>
<path d="M226.566 93.5779L225.223 93.9723C225.139 93.74 225.014 93.5143 224.85 93.2952C224.689 93.0716 224.47 92.8875 224.191 92.7429C223.912 92.5983 223.556 92.526 223.121 92.526C222.526 92.526 222.03 92.6684 221.633 92.9533C221.24 93.2338 221.044 93.591 221.044 94.0249C221.044 94.4106 221.179 94.7152 221.449 94.9388C221.719 95.1623 222.142 95.3486 222.716 95.4976L224.159 95.8658C225.029 96.0849 225.677 96.4202 226.103 96.8716C226.53 97.3187 226.743 97.895 226.743 98.6007C226.743 99.1792 226.583 99.6964 226.262 100.152C225.945 100.608 225.502 100.967 224.932 101.23C224.362 101.493 223.699 101.625 222.944 101.625C221.952 101.625 221.13 101.401 220.48 100.954C219.83 100.507 219.419 99.8542 219.246 98.9952L220.664 98.627C220.799 99.1705 221.055 99.5781 221.43 99.8498C221.81 100.122 222.306 100.257 222.918 100.257C223.615 100.257 224.168 100.104 224.577 99.7972C224.991 99.4861 225.198 99.1135 225.198 98.6796C225.198 98.329 225.08 98.0353 224.843 97.7986C224.607 97.5576 224.244 97.3779 223.754 97.2595L222.133 96.8651C221.242 96.6459 220.588 96.3062 220.17 95.846C219.756 95.3814 219.55 94.8007 219.55 94.1038C219.55 93.534 219.704 93.03 220.012 92.5917C220.324 92.1534 220.748 91.8093 221.285 91.5595C221.825 91.3097 222.437 91.1848 223.121 91.1848C224.083 91.1848 224.839 91.4039 225.388 91.8422C225.941 92.2805 226.334 92.8591 226.566 93.5779Z" fill="#ED1B36"/>
<path d="M235.719 91.3163V92.6311H230.678V91.3163H235.719ZM232.148 88.8969H233.642V98.5218C233.642 98.9601 233.703 99.2888 233.826 99.508C233.952 99.7227 234.113 99.8674 234.307 99.9419C234.505 100.012 234.714 100.047 234.934 100.047C235.098 100.047 235.233 100.038 235.339 100.021C235.445 99.9989 235.529 99.9813 235.592 99.9682L235.896 101.362C235.795 101.401 235.654 101.441 235.472 101.48C235.29 101.524 235.06 101.546 234.782 101.546C234.36 101.546 233.946 101.452 233.541 101.263C233.14 101.075 232.806 100.788 232.54 100.402C232.278 100.016 232.148 99.5299 232.148 98.9426V88.8969Z" fill="#ED1B36"/>
<path d="M244.437 101.625C243.5 101.625 242.691 101.41 242.012 100.981C241.336 100.547 240.815 99.9419 240.448 99.1661C240.084 98.3859 239.903 97.4787 239.903 96.4443C239.903 95.4099 240.084 94.4983 240.448 93.7093C240.815 92.916 241.326 92.298 241.98 91.8554C242.638 91.4083 243.407 91.1848 244.285 91.1848C244.791 91.1848 245.292 91.2724 245.786 91.4478C246.28 91.6231 246.729 91.908 247.134 92.3024C247.54 92.6925 247.863 93.2097 248.103 93.854C248.344 94.4983 248.464 95.2916 248.464 96.2339V96.8914H240.967V95.5502H246.944C246.944 94.9804 246.835 94.472 246.615 94.0249C246.4 93.5779 246.092 93.225 245.691 92.9664C245.294 92.7078 244.825 92.5786 244.285 92.5786C243.69 92.5786 243.175 92.732 242.74 93.0388C242.309 93.3412 241.978 93.7356 241.746 94.2222C241.513 94.7087 241.397 95.2302 241.397 95.7869V96.681C241.397 97.4436 241.524 98.0901 241.777 98.6204C242.035 99.1464 242.392 99.5474 242.847 99.8235C243.303 100.095 243.833 100.231 244.437 100.231C244.829 100.231 245.184 100.174 245.501 100.06C245.822 99.9419 246.098 99.7666 246.33 99.5343C246.562 99.2976 246.742 99.0039 246.868 98.6533L248.312 99.0741C248.16 99.5825 247.905 100.03 247.546 100.415C247.187 100.797 246.744 101.095 246.216 101.309C245.689 101.52 245.095 101.625 244.437 101.625Z" fill="#ED1B36"/>
<path d="M253.234 101.415V91.3163H254.678V92.8941H254.804C255.007 92.355 255.334 91.9365 255.786 91.6384C256.238 91.336 256.78 91.1848 257.413 91.1848C258.055 91.1848 258.589 91.336 259.015 91.6384C259.446 91.9365 259.781 92.355 260.022 92.8941H260.123C260.372 92.3726 260.746 91.9584 261.244 91.6516C261.742 91.3404 262.34 91.1848 263.036 91.1848C263.906 91.1848 264.617 91.4675 265.17 92.0329C265.723 92.5939 266 93.4683 266 94.6561V101.415H264.505V94.6561C264.505 93.911 264.309 93.3784 263.916 93.0585C263.524 92.7385 263.062 92.5786 262.53 92.5786C261.846 92.5786 261.316 92.7933 260.94 93.2228C260.565 93.648 260.377 94.1871 260.377 94.8401V101.415H258.857V94.4983C258.857 93.9241 258.678 93.4617 258.319 93.1111C257.96 92.7561 257.498 92.5786 256.932 92.5786C256.544 92.5786 256.181 92.6859 255.843 92.9007C255.509 93.1155 255.239 93.4135 255.032 93.7948C254.83 94.1717 254.728 94.6079 254.728 95.1031V101.415H253.234Z" fill="#ED1B36"/>
<defs>
<linearGradient id="paint0_linear_4293_68723" x1="62.5722" y1="45.7099" x2="48.9189" y2="45.7433" gradientUnits="userSpaceOnUse">
<stop stop-color="#ED1B36" stop-opacity="0.7"/>
<stop offset="1" stop-color="#ED1B36" stop-opacity="0"/>
</linearGradient>
</defs>
</svg>
